<mxfile host="Electron" modified="2023-06-24T02:47:32.859Z" agent="Mozilla/5.0 (Macintosh; Intel Mac OS X 10_15_7) AppleWebKit/537.36 (KHTML, like Gecko) draw.io/21.2.1 Chrome/112.0.5615.87 Electron/24.1.2 Safari/537.36" etag="TyJiF1SLYajfbJyuYXz6" version="21.2.1" type="device">
  <diagram id="3IyR5fEP8S_UvnFodpkr" name="Page-1">
    <mxGraphModel dx="836" dy="640" grid="0" gridSize="10" guides="1" tooltips="1" connect="1" arrows="1" fold="1" page="1" pageScale="1" pageWidth="850" pageHeight="1100" math="0" shadow="0">
      <root>
        <mxCell id="0" />
        <mxCell id="1" parent="0" />
        <mxCell id="6kkj-6BIAXKXM_aFALD5-23" value="Product" style="swimlane;fontStyle=1;align=center;verticalAlign=top;childLayout=stackLayout;horizontal=1;startSize=26;horizontalStack=0;resizeParent=1;resizeParentMax=0;resizeLast=0;collapsible=1;marginBottom=0;" parent="1" vertex="1">
          <mxGeometry x="378" y="800" width="150" height="160" as="geometry" />
        </mxCell>
        <mxCell id="6kkj-6BIAXKXM_aFALD5-24" value="- partA: type&#xa;- partB: type&#xa;... ..." style="text;strokeColor=none;fillColor=none;align=left;verticalAlign=top;spacingLeft=4;spacingRight=4;overflow=hidden;rotatable=0;points=[[0,0.5],[1,0.5]];portConstraint=eastwest;" parent="6kkj-6BIAXKXM_aFALD5-23" vertex="1">
          <mxGeometry y="26" width="150" height="54" as="geometry" />
        </mxCell>
        <mxCell id="6kkj-6BIAXKXM_aFALD5-25" value="" style="line;strokeWidth=1;fillColor=none;align=left;verticalAlign=middle;spacingTop=-1;spacingLeft=3;spacingRight=3;rotatable=0;labelPosition=right;points=[];portConstraint=eastwest;strokeColor=inherit;" parent="6kkj-6BIAXKXM_aFALD5-23" vertex="1">
          <mxGeometry y="80" width="150" height="8" as="geometry" />
        </mxCell>
        <mxCell id="6kkj-6BIAXKXM_aFALD5-26" value="+ setPartA(type): void" style="text;strokeColor=none;fillColor=none;align=left;verticalAlign=top;spacingLeft=4;spacingRight=4;overflow=hidden;rotatable=0;points=[[0,0.5],[1,0.5]];portConstraint=eastwest;" parent="6kkj-6BIAXKXM_aFALD5-23" vertex="1">
          <mxGeometry y="88" width="150" height="22" as="geometry" />
        </mxCell>
        <mxCell id="GZtXjlBzW28KPupZwKfD-1" value="+ getPartA(): type" style="text;strokeColor=none;fillColor=none;align=left;verticalAlign=top;spacingLeft=4;spacingRight=4;overflow=hidden;rotatable=0;points=[[0,0.5],[1,0.5]];portConstraint=eastwest;" parent="6kkj-6BIAXKXM_aFALD5-23" vertex="1">
          <mxGeometry y="110" width="150" height="20" as="geometry" />
        </mxCell>
        <mxCell id="GZtXjlBzW28KPupZwKfD-2" value="... ..." style="text;strokeColor=none;fillColor=none;align=left;verticalAlign=top;spacingLeft=4;spacingRight=4;overflow=hidden;rotatable=0;points=[[0,0.5],[1,0.5]];portConstraint=eastwest;" parent="6kkj-6BIAXKXM_aFALD5-23" vertex="1">
          <mxGeometry y="130" width="150" height="30" as="geometry" />
        </mxCell>
        <mxCell id="GZtXjlBzW28KPupZwKfD-3" value="Builder" style="swimlane;fontStyle=3;align=center;verticalAlign=top;childLayout=stackLayout;horizontal=1;startSize=26;horizontalStack=0;resizeParent=1;resizeParentMax=0;resizeLast=0;collapsible=1;marginBottom=0;" parent="1" vertex="1">
          <mxGeometry x="382" y="340" width="160" height="164" as="geometry" />
        </mxCell>
        <mxCell id="GZtXjlBzW28KPupZwKfD-4" value="- product: Product" style="text;strokeColor=none;fillColor=none;align=left;verticalAlign=top;spacingLeft=4;spacingRight=4;overflow=hidden;rotatable=0;points=[[0,0.5],[1,0.5]];portConstraint=eastwest;" parent="GZtXjlBzW28KPupZwKfD-3" vertex="1">
          <mxGeometry y="26" width="160" height="26" as="geometry" />
        </mxCell>
        <mxCell id="GZtXjlBzW28KPupZwKfD-5" value="" style="line;strokeWidth=1;fillColor=none;align=left;verticalAlign=middle;spacingTop=-1;spacingLeft=3;spacingRight=3;rotatable=0;labelPosition=right;points=[];portConstraint=eastwest;strokeColor=inherit;" parent="GZtXjlBzW28KPupZwKfD-3" vertex="1">
          <mxGeometry y="52" width="160" height="8" as="geometry" />
        </mxCell>
        <mxCell id="GZtXjlBzW28KPupZwKfD-8" value="+ getProduct(): Product" style="text;strokeColor=none;fillColor=none;align=left;verticalAlign=top;spacingLeft=4;spacingRight=4;overflow=hidden;rotatable=0;points=[[0,0.5],[1,0.5]];portConstraint=eastwest;fontStyle=0" parent="GZtXjlBzW28KPupZwKfD-3" vertex="1">
          <mxGeometry y="60" width="160" height="26" as="geometry" />
        </mxCell>
        <mxCell id="GZtXjlBzW28KPupZwKfD-6" value="+ buildPartA(): void" style="text;strokeColor=none;fillColor=none;align=left;verticalAlign=top;spacingLeft=4;spacingRight=4;overflow=hidden;rotatable=0;points=[[0,0.5],[1,0.5]];portConstraint=eastwest;fontStyle=2" parent="GZtXjlBzW28KPupZwKfD-3" vertex="1">
          <mxGeometry y="86" width="160" height="26" as="geometry" />
        </mxCell>
        <mxCell id="GZtXjlBzW28KPupZwKfD-9" value="+ buildPartB(): void" style="text;strokeColor=none;fillColor=none;align=left;verticalAlign=top;spacingLeft=4;spacingRight=4;overflow=hidden;rotatable=0;points=[[0,0.5],[1,0.5]];portConstraint=eastwest;fontStyle=2" parent="GZtXjlBzW28KPupZwKfD-3" vertex="1">
          <mxGeometry y="112" width="160" height="26" as="geometry" />
        </mxCell>
        <mxCell id="GZtXjlBzW28KPupZwKfD-10" value="... ..." style="text;strokeColor=none;fillColor=none;align=left;verticalAlign=top;spacingLeft=4;spacingRight=4;overflow=hidden;rotatable=0;points=[[0,0.5],[1,0.5]];portConstraint=eastwest;" parent="GZtXjlBzW28KPupZwKfD-3" vertex="1">
          <mxGeometry y="138" width="160" height="26" as="geometry" />
        </mxCell>
        <mxCell id="GZtXjlBzW28KPupZwKfD-11" value="ConcreteBuilder1" style="swimlane;fontStyle=1;align=center;verticalAlign=top;childLayout=stackLayout;horizontal=1;startSize=26;horizontalStack=0;resizeParent=1;resizeParentMax=0;resizeLast=0;collapsible=1;marginBottom=0;" parent="1" vertex="1">
          <mxGeometry x="284" y="595" width="160" height="138" as="geometry" />
        </mxCell>
        <mxCell id="GZtXjlBzW28KPupZwKfD-12" value=" " style="text;strokeColor=none;fillColor=none;align=left;verticalAlign=top;spacingLeft=4;spacingRight=4;overflow=hidden;rotatable=0;points=[[0,0.5],[1,0.5]];portConstraint=eastwest;" parent="GZtXjlBzW28KPupZwKfD-11" vertex="1">
          <mxGeometry y="26" width="160" height="26" as="geometry" />
        </mxCell>
        <mxCell id="GZtXjlBzW28KPupZwKfD-13" value="" style="line;strokeWidth=1;fillColor=none;align=left;verticalAlign=middle;spacingTop=-1;spacingLeft=3;spacingRight=3;rotatable=0;labelPosition=right;points=[];portConstraint=eastwest;strokeColor=inherit;" parent="GZtXjlBzW28KPupZwKfD-11" vertex="1">
          <mxGeometry y="52" width="160" height="8" as="geometry" />
        </mxCell>
        <mxCell id="GZtXjlBzW28KPupZwKfD-15" value="+ buildPartA(): void" style="text;strokeColor=none;fillColor=none;align=left;verticalAlign=top;spacingLeft=4;spacingRight=4;overflow=hidden;rotatable=0;points=[[0,0.5],[1,0.5]];portConstraint=eastwest;" parent="GZtXjlBzW28KPupZwKfD-11" vertex="1">
          <mxGeometry y="60" width="160" height="26" as="geometry" />
        </mxCell>
        <mxCell id="GZtXjlBzW28KPupZwKfD-16" value="+ buildPartB(): void" style="text;strokeColor=none;fillColor=none;align=left;verticalAlign=top;spacingLeft=4;spacingRight=4;overflow=hidden;rotatable=0;points=[[0,0.5],[1,0.5]];portConstraint=eastwest;" parent="GZtXjlBzW28KPupZwKfD-11" vertex="1">
          <mxGeometry y="86" width="160" height="26" as="geometry" />
        </mxCell>
        <mxCell id="GZtXjlBzW28KPupZwKfD-17" value="... ..." style="text;strokeColor=none;fillColor=none;align=left;verticalAlign=top;spacingLeft=4;spacingRight=4;overflow=hidden;rotatable=0;points=[[0,0.5],[1,0.5]];portConstraint=eastwest;" parent="GZtXjlBzW28KPupZwKfD-11" vertex="1">
          <mxGeometry y="112" width="160" height="26" as="geometry" />
        </mxCell>
        <mxCell id="GZtXjlBzW28KPupZwKfD-18" value="ConcreteBuilder2" style="swimlane;fontStyle=1;align=center;verticalAlign=top;childLayout=stackLayout;horizontal=1;startSize=26;horizontalStack=0;resizeParent=1;resizeParentMax=0;resizeLast=0;collapsible=1;marginBottom=0;" parent="1" vertex="1">
          <mxGeometry x="474" y="595" width="160" height="138" as="geometry" />
        </mxCell>
        <mxCell id="GZtXjlBzW28KPupZwKfD-19" value=" " style="text;strokeColor=none;fillColor=none;align=left;verticalAlign=top;spacingLeft=4;spacingRight=4;overflow=hidden;rotatable=0;points=[[0,0.5],[1,0.5]];portConstraint=eastwest;" parent="GZtXjlBzW28KPupZwKfD-18" vertex="1">
          <mxGeometry y="26" width="160" height="26" as="geometry" />
        </mxCell>
        <mxCell id="GZtXjlBzW28KPupZwKfD-20" value="" style="line;strokeWidth=1;fillColor=none;align=left;verticalAlign=middle;spacingTop=-1;spacingLeft=3;spacingRight=3;rotatable=0;labelPosition=right;points=[];portConstraint=eastwest;strokeColor=inherit;" parent="GZtXjlBzW28KPupZwKfD-18" vertex="1">
          <mxGeometry y="52" width="160" height="8" as="geometry" />
        </mxCell>
        <mxCell id="GZtXjlBzW28KPupZwKfD-22" value="+ buildPartA(): void" style="text;strokeColor=none;fillColor=none;align=left;verticalAlign=top;spacingLeft=4;spacingRight=4;overflow=hidden;rotatable=0;points=[[0,0.5],[1,0.5]];portConstraint=eastwest;" parent="GZtXjlBzW28KPupZwKfD-18" vertex="1">
          <mxGeometry y="60" width="160" height="26" as="geometry" />
        </mxCell>
        <mxCell id="GZtXjlBzW28KPupZwKfD-23" value="+ buildPartB(): void" style="text;strokeColor=none;fillColor=none;align=left;verticalAlign=top;spacingLeft=4;spacingRight=4;overflow=hidden;rotatable=0;points=[[0,0.5],[1,0.5]];portConstraint=eastwest;" parent="GZtXjlBzW28KPupZwKfD-18" vertex="1">
          <mxGeometry y="86" width="160" height="26" as="geometry" />
        </mxCell>
        <mxCell id="GZtXjlBzW28KPupZwKfD-24" value="... ..." style="text;strokeColor=none;fillColor=none;align=left;verticalAlign=top;spacingLeft=4;spacingRight=4;overflow=hidden;rotatable=0;points=[[0,0.5],[1,0.5]];portConstraint=eastwest;" parent="GZtXjlBzW28KPupZwKfD-18" vertex="1">
          <mxGeometry y="112" width="160" height="26" as="geometry" />
        </mxCell>
        <mxCell id="fJPOXV4DsNBNNNVQiUX5-1" value="Director" style="swimlane;fontStyle=1;align=center;verticalAlign=top;childLayout=stackLayout;horizontal=1;startSize=26;horizontalStack=0;resizeParent=1;resizeParentMax=0;resizeLast=0;collapsible=1;marginBottom=0;" parent="1" vertex="1">
          <mxGeometry x="70" y="340" width="160" height="86" as="geometry" />
        </mxCell>
        <mxCell id="fJPOXV4DsNBNNNVQiUX5-2" value="- builder: Builder" style="text;strokeColor=none;fillColor=none;align=left;verticalAlign=top;spacingLeft=4;spacingRight=4;overflow=hidden;rotatable=0;points=[[0,0.5],[1,0.5]];portConstraint=eastwest;" parent="fJPOXV4DsNBNNNVQiUX5-1" vertex="1">
          <mxGeometry y="26" width="160" height="26" as="geometry" />
        </mxCell>
        <mxCell id="fJPOXV4DsNBNNNVQiUX5-3" value="" style="line;strokeWidth=1;fillColor=none;align=left;verticalAlign=middle;spacingTop=-1;spacingLeft=3;spacingRight=3;rotatable=0;labelPosition=right;points=[];portConstraint=eastwest;strokeColor=inherit;" parent="fJPOXV4DsNBNNNVQiUX5-1" vertex="1">
          <mxGeometry y="52" width="160" height="8" as="geometry" />
        </mxCell>
        <mxCell id="fJPOXV4DsNBNNNVQiUX5-4" value="+ construct(): void" style="text;strokeColor=none;fillColor=none;align=left;verticalAlign=top;spacingLeft=4;spacingRight=4;overflow=hidden;rotatable=0;points=[[0,0.5],[1,0.5]];portConstraint=eastwest;" parent="fJPOXV4DsNBNNNVQiUX5-1" vertex="1">
          <mxGeometry y="60" width="160" height="26" as="geometry" />
        </mxCell>
        <mxCell id="fJPOXV4DsNBNNNVQiUX5-7" value="builder.buildPartA();&lt;br&gt;builder.buildPartB();&lt;br&gt;... ..." style="shape=note;size=9;whiteSpace=wrap;html=1;" parent="1" vertex="1">
          <mxGeometry x="111" y="470" width="141" height="60" as="geometry" />
        </mxCell>
        <mxCell id="fJPOXV4DsNBNNNVQiUX5-10" value="" style="endArrow=none;dashed=1;html=1;rounded=0;startArrow=oval;startFill=0;entryX=0.631;entryY=-0.025;entryDx=0;entryDy=0;entryPerimeter=0;" parent="1" target="fJPOXV4DsNBNNNVQiUX5-7" edge="1">
          <mxGeometry width="50" height="50" relative="1" as="geometry">
            <mxPoint x="200" y="410" as="sourcePoint" />
            <mxPoint x="200" y="460" as="targetPoint" />
          </mxGeometry>
        </mxCell>
        <mxCell id="JrP3FZ08fIbXSxoxR0xJ-1" value="" style="endArrow=block;endFill=0;endSize=12;html=1;rounded=0;exitX=0.5;exitY=0;exitDx=0;exitDy=0;" parent="1" source="GZtXjlBzW28KPupZwKfD-11" target="GZtXjlBzW28KPupZwKfD-10" edge="1">
          <mxGeometry width="160" relative="1" as="geometry">
            <mxPoint x="328" y="503" as="sourcePoint" />
            <mxPoint x="444" y="510" as="targetPoint" />
          </mxGeometry>
        </mxCell>
        <mxCell id="JrP3FZ08fIbXSxoxR0xJ-2" value="" style="endArrow=block;endFill=0;endSize=12;html=1;rounded=0;exitX=0.5;exitY=0;exitDx=0;exitDy=0;" parent="1" source="GZtXjlBzW28KPupZwKfD-18" target="GZtXjlBzW28KPupZwKfD-10" edge="1">
          <mxGeometry width="160" relative="1" as="geometry">
            <mxPoint x="555" y="575" as="sourcePoint" />
            <mxPoint x="488" y="503" as="targetPoint" />
          </mxGeometry>
        </mxCell>
        <mxCell id="Ly4na3WUkbe8btSziVKS-1" value="" style="endArrow=open;endFill=1;endSize=12;html=1;rounded=0;entryX=0.25;entryY=0;entryDx=0;entryDy=0;" edge="1" parent="1" source="GZtXjlBzW28KPupZwKfD-17" target="6kkj-6BIAXKXM_aFALD5-23">
          <mxGeometry width="160" relative="1" as="geometry">
            <mxPoint x="224" y="741" as="sourcePoint" />
            <mxPoint x="431" y="799" as="targetPoint" />
          </mxGeometry>
        </mxCell>
        <mxCell id="Ly4na3WUkbe8btSziVKS-2" value="" style="endArrow=open;endFill=1;endSize=12;html=1;rounded=0;entryX=0.75;entryY=0;entryDx=0;entryDy=0;" edge="1" parent="1" source="GZtXjlBzW28KPupZwKfD-24" target="6kkj-6BIAXKXM_aFALD5-23">
          <mxGeometry width="160" relative="1" as="geometry">
            <mxPoint x="224" y="741" as="sourcePoint" />
            <mxPoint x="384" y="741" as="targetPoint" />
          </mxGeometry>
        </mxCell>
        <mxCell id="Ly4na3WUkbe8btSziVKS-3" value="" style="endArrow=open;endFill=1;endSize=12;html=1;rounded=0;" edge="1" parent="1">
          <mxGeometry width="160" relative="1" as="geometry">
            <mxPoint x="230" y="388" as="sourcePoint" />
            <mxPoint x="383" y="388" as="targetPoint" />
          </mxGeometry>
        </mxCell>
      </root>
    </mxGraphModel>
  </diagram>
</mxfile>
